<svg width="1200" height="630" viewBox="0 0 1200 630" xmlns="http://www.w3.org/2000/svg">
  <!-- Background -->
  <rect width="1200" height="630" fill="#e0f2fe"/>
  
  <!-- Geometric Patterns -->
  <circle cx="100" cy="100" r="300" fill="none" stroke="rgba(0,0,0,0.1)" stroke-width="2"/>
  <circle cx="1100" cy="530" r="300" fill="none" stroke="rgba(0,0,0,0.1)" stroke-width="2"/>
  
  <!-- Main Container -->
  <rect x="100" y="80" width="1000" height="470" fill="white" stroke="black" stroke-width="8"/>
  <rect x="115" y="95" width="1000" height="470" fill="black" fill-opacity="0.2"/>
  
  <!-- Content -->
  <g transform="translate(600, 315)">
    <!-- Sun Icon -->
    <circle cx="0" cy="-60" r="60" fill="#ff5f00" stroke="black" stroke-width="6"/>
    <path d="M0 -140 L0 -190 M0 20 L0 70 M-140 -60 L-190 -60 M20 -60 L70 -60 M-100 -160 L-135 -195 M100 -160 L135 -195 M-100 40 L-135 75 M100 40 L135 75" stroke="black" stroke-width="8" stroke-linecap="square"/>
    
    <!-- Title -->
    <text x="0" y="60" font-family="monospace" font-weight="900" font-size="80" text-anchor="middle" fill="black">ONCHAIN GM</text>
    
    <!-- Subtitle Tag -->
    <rect x="-200" y="90" width="400" height="50" fill="black"/>
    <text x="0" y="125" font-family="monospace" font-weight="bold" font-size="30" text-anchor="middle" fill="#00ff41">AI POWERED // BASE</text>
  </g>
  
  <!-- Corner Accents -->
  <rect x="80" y="60" width="40" height="40" fill="#00ff41" stroke="black" stroke-width="4"/>
  <rect x="1080" y="530" width="40" height="40" fill="#00ff41" stroke="black" stroke-width="4"/>
</svg>